<svg xmlns="http://www.w3.org/2000/svg" width="24" height="24" fill="none" viewBox="0 0 24 24"><path fill="#000" fill-rule="evenodd" d="M12 3a5 5 0 0 0-5 5.07A7 7 0 0 1 8 8c1.487 0 2.866.464 4 1.255A6.97 6.97 0 0 1 16 8q.51 0 1 .07V8a5 5 0 0 0-5-5m6.97 5.66Q19 8.332 19 8a7 7 0 1 0-13.97.66A7 7 0 1 0 12 20.744 7 7 0 1 0 18.97 8.66m-2.4 1.372a4.976 4.976 0 0 0-3.07.637c.399.506.73 1.07.978 1.675a5.02 5.02 0 0 0 2.092-2.312m-6.07.637a4.98 4.98 0 0 0-3.07-.637 5.02 5.02 0 0 0 2.092 2.312c.248-.606.579-1.169.978-1.675m.93 2.299q.232-.519.57-.969.338.45.57.969a5 5 0 0 1-1.14 0m-2.4 1.373a7.03 7.03 0 0 1-3.508-3.684A5 5 0 1 0 10.5 19.33a6.97 6.97 0 0 1-1.47-4.99M12 18a4.98 4.98 0 0 1-1-3.072 7 7 0 0 0 2 0V15a4.98 4.98 0 0 1-1 3m1.5 1.33a6.97 6.97 0 0 0 1.47-4.99 7.03 7.03 0 0 0 3.508-3.684A5 5 0 1 1 13.5 19.33" clip-rule="evenodd"/></svg>