<svg xmlns="http://www.w3.org/2000/svg" width="24" height="24" fill="none" viewBox="0 0 24 24"><path fill="#000" fill-rule="evenodd" d="M4 2a2 2 0 0 0-2 2v16a2 2 0 0 0 2 2h7a1 1 0 1 0 0-2H4V4h16v10a1 1 0 1 0 2 0V4a2 2 0 0 0-2-2zm5.496 5.132A1 1 0 0 0 8 8v8a1 1 0 0 0 1.496.868l7-4a1 1 0 0 0 0-1.736zM13.984 12 10 14.277V9.723zm.516 5a.5.5 0 0 0-.5.5v1a.5.5 0 0 0 .5.5h1a.5.5 0 0 0 .5-.5v-1a.5.5 0 0 0-.5-.5zm0 3a.5.5 0 0 0-.5.5v1a.5.5 0 0 0 .5.5h1a.5.5 0 0 0 .5-.5v-1a.5.5 0 0 0-.5-.5zm2.5-2.5a.5.5 0 0 1 .5-.5h4a.5.5 0 0 1 .5.5v1a.5.5 0 0 1-.5.5h-4a.5.5 0 0 1-.5-.5zm.5 2.5a.5.5 0 0 0-.5.5v1a.5.5 0 0 0 .5.5h4a.5.5 0 0 0 .5-.5v-1a.5.5 0 0 0-.5-.5z" clip-rule="evenodd"/></svg>